<svg xmlns="http://www.w3.org/2000/svg" xmlns:xlink="http://www.w3.org/1999/xlink" version="1.1" id="Ebene_1" x="0px" y="0px" width="100px" height="100px" viewBox="0 0 100 100" enable-background="new 0 0 100 100" xml:space="preserve">
<g id="Ebene_3" display="none">
	<g display="inline">
		<g>
			<path d="M64.917,38.881h-30.43v2.029h30.43V38.881z M16.229,83.512h12.172V71.34H16.229V83.512z M18.197,73.309h8.115v8.115     h-8.115V73.309z M16.229,28.738h12.172V16.566H16.229V28.738z M18.197,18.534h8.115v8.115h-8.115V18.534z M64.809,20.624H34.488     v2.029h30.321V20.624z M83.176,51.799V6.313c0-3.361-2.726-6.086-6.087-6.086H6.086C2.725,0.227,0,2.952,0,6.313v87.343     c0,3.359,2.725,6.086,6.086,6.086h68.059c0.41,0.021,0.821,0.031,1.235,0.031s0.826-0.013,1.235-0.031h0.474     c0.49,0,0.966-0.064,1.421-0.174C90.629,98.029,100,87.688,100,75.152C100,64.279,92.951,55.061,83.176,51.799z M9.982,95.895     c-3.36,0-6.085-2.727-6.085-6.086V10.44c0-3.362,2.725-6.086,6.085-6.086H73.21c3.36,0,6.086,2.724,6.086,6.086v40.404     c-1.274-0.203-2.583-0.312-3.916-0.312c-6.485,0-12.381,2.511-16.778,6.606H34.487v2.028H56.66     c-3.678,4.302-5.902,9.882-5.902,15.983c0,0.082,0.006,0.164,0.006,0.246H34.487v2.026h16.379     c0.711,7.765,5.024,14.479,11.256,18.47H9.982V95.895z M71.542,91.459l-11.19-13.27l4.797-4.318l6.715,6.717l11.99-20.783     l6.556,4.795L71.542,91.459z M16.229,46.996h12.172V34.824H16.229V46.996z M18.197,36.792h8.115v8.115h-8.115V36.792z      M16.229,65.254h12.172V53.082H16.229V65.254z M18.197,55.051h8.115v8.115h-8.115V55.051z"/>
		</g>
	</g>
</g>
<g id="Ebene_2">
	<g>
		<path d="M7.199,97c-2.21,0-4-1.79-4-4V7c0-2.21,1.79-4,4-4h69.657c2.21,0,4,1.79,4,4v41.17c1.369,0.2,1.845,0.5,3.145,0.89V6    c0-3.31-2.689-6-6-6H6C2.69,0,0,2.69,0,6v88c0,3.311,2.69,6,6,6h55.51l-4.09-3H7.199z"/>
		<path d="M29,16H16v13h13V16z M27,27h-9v-9h9V27z"/>
		<rect x="35" y="21" width="30" height="2"/>
		<path d="M29,34H16v13h13V34z M27,45h-9v-9h9V45z"/>
		<rect x="35" y="39" width="30" height="2"/>
		<path d="M29,52H16v13h13V52z M27,63h-9v-9h9V63z"/>
		<path d="M55.24,57H35v2h18.58C54.09,58.311,54.65,57.641,55.24,57z"/>
		<path d="M16,83h13V70H16V83z M18,72h9v9h-9V72z"/>
		<path d="M35,75v2h12.91c-0.02-0.35-0.03-0.7-0.03-1.061c0-0.319,0.01-0.631,0.03-0.939H35z"/>
		<path d="M84,53.27c-1.279-0.459-2.62-0.81-4-1.039c-1.32-0.229-2.68-0.351-4.061-0.351c-5.59,0-10.739,1.899-14.819,5.12    c-0.8,0.609-1.55,1.279-2.261,2c-4.109,4.141-6.721,9.77-6.959,16c-0.012,0.311-0.021,0.63-0.021,0.939    c0,0.351,0.01,0.711,0.03,1.061c0.37,8.62,5.271,16.061,12.39,20c3.45,1.91,7.42,3,11.641,3H78c0.71,0,1.391-0.12,2.02-0.35    C91.37,97.721,100,87.84,100,75.939C100,65.48,93.33,56.58,84,53.27z M82.902,77.256l-3.226,4.756l-1.313,1.944l-3.805,5.604    l-5.209-4.086l-7.82-6.138L63.32,76.7l1.177-1.735l0.838-1.24l1.579,1.24l0.67,0.529l5.562,4.363l6.53-9.642l3.226-4.756    l1.645-2.431l5.217,4.088L82.902,77.256z"/>
	</g>
</g>
</svg>