<svg xmlns="http://www.w3.org/2000/svg" xmlns:xlink="http://www.w3.org/1999/xlink" version="1.1" id="Layer_1" x="0px" y="0px" viewBox="0 0 100 100" enable-background="new 0 0 100 100" xml:space="preserve" height="100px" width="100px">
<path fill="#000000" d="M50,75.2c-9.2,0-18.4-2.6-18.4-8.3c0-6.4,3.3-12.2,8.6-15.6c-2.1-2.4-3.3-5.5-3.3-8.7  c0-7.2,5.9-13.1,13.1-13.1s13.1,5.9,13.1,13.1c0,3.2-1.2,6.3-3.3,8.7c5.3,3.4,8.6,9.2,8.6,15.6C68.4,72.7,59.2,75.2,50,75.2z   M50,31.9c-5.9,0-10.7,4.8-10.7,10.7c0,3.1,1.3,6,3.7,8.1c0.3,0.3,0.5,0.7,0.4,1.1c0,0.4-0.3,0.7-0.6,0.9c-5.4,2.7-8.7,8.2-8.7,14.2  c0,3.4,6.9,5.9,16,5.9s16-2.5,16-5.9c0-6-3.3-11.5-8.7-14.2c-0.4-0.2-0.6-0.5-0.6-0.9c0-0.4,0.1-0.8,0.4-1.1c2.3-2,3.7-5,3.7-8.1  C60.7,36.7,55.9,31.9,50,31.9z M87.6,43.6c1.8-2.1,2.8-4.7,2.8-7.4c0-6.3-5.1-11.4-11.4-11.4c-6.3,0-11.4,5.1-11.4,11.4  c0,2.7,1,5.4,2.8,7.4c-3.2,2-5.5,5.1-6.6,8.6c0.7,0.7,1.4,1.4,2,2.1c0.8-4,3.4-7.5,7.1-9.4c0.4-0.2,0.6-0.5,0.6-0.9  c0-0.4-0.1-0.8-0.4-1.1c-2-1.7-3.1-4.2-3.1-6.8c0-5,4-9,9-9c5,0,9,4,9,9c0,2.6-1.1,5.1-3.1,6.8c-0.3,0.3-0.5,0.7-0.4,1.1  c0,0.4,0.3,0.7,0.6,0.9c4.6,2.3,7.4,6.9,7.4,12c0,2.7-5.9,4.9-13.5,4.9c-4.1,0-7.7-0.6-10.2-1.7c0.3,0.9,0.5,1.8,0.6,2.8  c2.8,0.9,6.2,1.3,9.6,1.3c7.9,0,15.9-2.3,15.9-7.3C94.9,51.5,92.2,46.5,87.6,43.6z M31.2,60.2c-2.5,1-6.1,1.7-10.2,1.7  c-7.6,0-13.5-2.2-13.5-4.9c0-5.1,2.8-9.7,7.4-12c0.4-0.2,0.6-0.5,0.6-0.9c0-0.4-0.1-0.8-0.4-1.1c-2-1.7-3.1-4.2-3.1-6.8c0-5,4-9,9-9  s9,4,9,9c0,2.6-1.1,5.1-3.1,6.8c-0.3,0.3-0.5,0.7-0.4,1.1c0,0.4,0.3,0.7,0.6,0.9c3.8,1.9,6.3,5.4,7.1,9.4c0.6-0.8,1.2-1.5,2-2.1  c-1.1-3.5-3.4-6.6-6.6-8.6c1.8-2.1,2.8-4.7,2.8-7.4c0-6.3-5.1-11.4-11.4-11.4S9.6,29.9,9.6,36.2c0,2.7,1,5.4,2.8,7.4  C7.8,46.5,5.1,51.5,5.1,57c0,5,8,7.3,15.9,7.3c3.4,0,6.8-0.4,9.6-1.3C30.7,62.1,31,61.1,31.2,60.2z"/>
</svg>