<?xml version="1.0" encoding="utf-8"?>
<!-- Generator: Adobe Illustrator 16.0.0, SVG Export Plug-In . SVG Version: 6.00 Build 0)  -->
<!DOCTYPE svg PUBLIC "-//W3C//DTD SVG 1.1//EN" "http://www.w3.org/Graphics/SVG/1.1/DTD/svg11.dtd">
<svg version="1.1" id="Ebene_1" xmlns="http://www.w3.org/2000/svg" xmlns:xlink="http://www.w3.org/1999/xlink" x="0px" y="0px"
	 width="92.639px" height="100.816px" viewBox="0 0 92.639 100.816" enable-background="new 0 0 92.639 100.816"
	 xml:space="preserve">
<path d="M45.43,15.339c0.659,0,1.317,0.218,1.82,0.652l15.446,13.363c0.367,0.317,0.709,0.468,0.994,0.468
	c0.497,0,0.825-0.458,0.825-1.302v-3.223c0-1.329,1.079-2.406,2.407-2.406h6.011c1.328,0,2.406,1.077,2.406,2.406v12.586
	c0,1.328,0.814,3.111,1.821,3.981l7.501,6.491c1.006,0.87,0.742,1.575-0.585,1.575h-6.331c-1.328,0-2.406,0.954-2.406,2.13
	c0,1.177,0,2.131,0,2.131v31.633c0,1.328-1.078,2.406-2.406,2.406H17.927c-1.328,0-2.407-1.078-2.407-2.406V52.338
	c0-1.328-1.078-2.407-2.406-2.407h-6.33c-1.329,0-1.592-0.705-0.586-1.575L43.61,15.992C44.112,15.555,44.772,15.339,45.43,15.339
	 M45.43,11.73c-1.554,0-3.039,0.544-4.182,1.531L3.836,45.626c-2.459,2.127-1.849,4.443-1.604,5.102
	c0.246,0.661,1.3,2.812,4.552,2.812h5.127v32.284c0,3.316,2.699,6.016,6.016,6.016h55.007c3.316,0,6.016-2.699,6.016-6.016V54.191
	v-0.651h5.128c3.25,0,4.305-2.15,4.55-2.812c0.247-0.659,0.856-2.976-1.604-5.103l-7.5-6.49c-0.229-0.218-0.559-0.938-0.573-1.258
	V25.298c0-3.317-2.699-6.016-6.016-6.016h-6.011c-2.626,0-4.863,1.689-5.683,4.039L49.613,13.261
	C48.469,12.274,46.984,11.73,45.43,11.73L45.43,11.73z"/>
</svg>
