<?xml version="1.0" encoding="utf-8"?>
<!-- Generator: Adobe Illustrator 16.0.0, SVG Export Plug-In . SVG Version: 6.00 Build 0)  -->
<!DOCTYPE svg PUBLIC "-//W3C//DTD SVG 1.1//EN" "http://www.w3.org/Graphics/SVG/1.1/DTD/svg11.dtd">
<svg version="1.1" id="Layer_1" xmlns="http://www.w3.org/2000/svg" xmlns:xlink="http://www.w3.org/1999/xlink" x="0px" y="0px"
	 width="100px" height="100px" viewBox="0 0 100 100" enable-background="new 0 0 100 100" xml:space="preserve">
<g id="Captions">
</g>
<g id="Your_Icon">
	<g>
		<path d="M43.037,79.334c-0.039-0.001-0.068-0.001-0.101-0.003c-1.912-0.089-2.4-1.882-2.918-3.78
			c-0.744-2.734-1.989-7.31-6.334-12.191c-7.515-8.451-9.725-20.454-5.501-29.867c3.78-8.423,12.117-13.253,22.871-13.253
			c10.753,0,19.091,4.83,22.871,13.253c4.224,9.414,2.017,21.416-5.5,29.867c-4.868,5.472-7.338,8.741-7.338,9.721
			c0,0.92-0.615,1.726-1.505,1.968C43.902,79.295,43.378,79.334,43.037,79.334z M51.056,24.312c-9.213,0-16.017,3.852-19.156,10.848
			c-3.581,7.976-1.642,18.222,4.827,25.491c4.982,5.602,6.438,10.957,7.221,13.834c0.041,0.153,0.085,0.314,0.13,0.476
			c2.692-0.685,8.722-2.298,13.219-3.516c0.654-1.903,2.662-4.696,8.085-10.794c6.469-7.27,8.409-17.515,4.828-25.491
			C67.07,28.164,60.268,24.312,51.056,24.312z"/>
		<path d="M50.543,100.634c-0.91,0-1.737-0.612-1.971-1.534c-0.277-1.091,0.382-2.2,1.471-2.477l10.078-2.561
			c1.085-0.273,2.199,0.38,2.477,1.471c0.277,1.089-0.382,2.197-1.472,2.476l-10.077,2.562
			C50.878,100.612,50.708,100.634,50.543,100.634z"/>
		<path d="M42.675,91.268c-0.905,0-1.731-0.608-1.968-1.524c-0.284-1.087,0.369-2.199,1.457-2.48l17.947-4.66
			c1.091-0.29,2.2,0.371,2.48,1.458c0.284,1.09-0.37,2.202-1.456,2.482l-17.946,4.659C43.016,91.245,42.843,91.268,42.675,91.268z"
			/>
		<path d="M42.675,97.07c-0.905,0-1.731-0.608-1.968-1.524c-0.284-1.087,0.369-2.2,1.457-2.481l17.947-4.659
			c1.091-0.289,2.2,0.371,2.48,1.458c0.284,1.09-0.37,2.201-1.456,2.482l-17.946,4.658C43.016,97.048,42.843,97.07,42.675,97.07z"/>
		<path d="M42.675,85.467c-0.905,0-1.731-0.61-1.968-1.525c-0.284-1.088,0.369-2.2,1.457-2.481l17.947-4.66
			c1.091-0.29,2.2,0.372,2.48,1.459c0.284,1.089-0.37,2.201-1.456,2.481l-17.946,4.659C43.016,85.443,42.843,85.467,42.675,85.467z"
			/>
	</g>
	<path d="M16.791,48.789H8.473c-1.125,0-2.036-0.912-2.036-2.036c0-1.125,0.913-2.036,2.036-2.036h8.317
		c1.125,0,2.036,0.911,2.036,2.036C18.826,47.877,17.914,48.789,16.791,48.789z"/>
	<path d="M21.438,31.431c-0.347,0-0.696-0.088-1.016-0.274l-7.202-4.159c-0.974-0.562-1.307-1.808-0.745-2.782
		c0.563-0.975,1.811-1.305,2.782-0.744l7.202,4.16c0.973,0.561,1.307,1.807,0.744,2.781C22.826,31.065,22.143,31.431,21.438,31.431z
		"/>
	<path d="M34.149,18.723c-0.702,0-1.387-0.365-1.765-1.018l-4.159-7.202c-0.562-0.973-0.228-2.22,0.744-2.782
		c0.972-0.561,2.219-0.229,2.782,0.744l4.159,7.202c0.562,0.973,0.227,2.221-0.745,2.782C34.846,18.635,34.496,18.723,34.149,18.723
		z"/>
	<path d="M51.507,14.072c-1.124,0-2.036-0.911-2.036-2.037V3.72c0-1.124,0.913-2.036,2.036-2.036c1.125,0,2.037,0.912,2.037,2.036
		v8.315C53.544,13.161,52.632,14.072,51.507,14.072z"/>
	<path d="M68.865,18.725c-0.347,0-0.697-0.088-1.018-0.275c-0.973-0.561-1.307-1.807-0.743-2.781l4.158-7.202
		c0.563-0.974,1.81-1.306,2.783-0.744c0.973,0.562,1.307,1.807,0.743,2.782l-4.159,7.202C70.25,18.359,69.566,18.725,68.865,18.725z
		"/>
	<path d="M81.576,31.433c-0.704,0-1.387-0.365-1.767-1.018c-0.562-0.974-0.228-2.221,0.745-2.782l7.2-4.159
		c0.971-0.562,2.221-0.229,2.783,0.744c0.561,0.973,0.228,2.221-0.744,2.782l-7.201,4.16C82.271,31.344,81.922,31.433,81.576,31.433
		z"/>
	<path d="M88.773,70.309c-0.346,0-0.696-0.087-1.017-0.274l-7.202-4.159c-0.973-0.562-1.307-1.807-0.742-2.781
		c0.562-0.974,1.81-1.311,2.781-0.745l7.201,4.159c0.974,0.562,1.308,1.808,0.745,2.782C90.163,69.943,89.477,70.309,88.773,70.309z
		"/>
	<path d="M34.146,76.819"/>
	<path d="M14.241,70.305c-0.703,0-1.387-0.365-1.766-1.018c-0.561-0.975-0.228-2.222,0.744-2.781l7.202-4.16
		c0.972-0.562,2.219-0.229,2.782,0.745c0.562,0.975,0.228,2.22-0.744,2.781l-7.202,4.158C14.936,70.218,14.587,70.305,14.241,70.305
		z"/>
</g>
</svg>
