<?xml version="1.0" encoding="utf-8"?>
<!-- Generator: Adobe Illustrator 16.0.0, SVG Export Plug-In . SVG Version: 6.00 Build 0)  -->
<!DOCTYPE svg PUBLIC "-//W3C//DTD SVG 1.1//EN" "http://www.w3.org/Graphics/SVG/1.1/DTD/svg11.dtd">
<svg version="1.1" id="Layer_1" xmlns="http://www.w3.org/2000/svg" xmlns:xlink="http://www.w3.org/1999/xlink" x="0px" y="0px"
	 width="100px" height="100px" viewBox="0 0 100 100" enable-background="new 0 0 100 100" xml:space="preserve">
<path d="M47.417,80.049c-9.964,0-19.332-3.877-26.376-10.917C6.522,54.583,6.517,30.924,21.027,16.377
	C28.083,9.336,37.456,5.454,47.42,5.454c9.966,0,19.33,3.875,26.374,10.912c14.543,14.546,14.535,38.222-0.01,52.762
	C66.747,76.172,57.379,80.049,47.417,80.049z M47.421,12.157c-8.176,0-15.87,3.184-21.653,8.958
	c-11.907,11.931-11.902,31.351,0.014,43.279c5.774,5.774,13.458,8.959,21.635,8.959c8.173,0,15.858-3.185,21.633-8.959
	c11.933-11.932,11.938-31.351,0.009-43.289C63.28,15.336,55.6,12.157,47.421,12.157z"/>
<path d="M57.798,95.113c-9.161,0-18.333-3.46-25.356-10.391c-3.981-3.955-6.92-8.615-8.739-13.872
	c-0.606-1.746,0.323-3.655,2.071-4.259c1.75-0.607,3.655,0.323,4.261,2.071c1.483,4.28,3.877,8.083,7.117,11.303
	c11.527,11.364,30.15,11.259,41.532-0.25C90.07,68.2,89.967,49.558,78.449,38.16c-1.318-1.3-1.327-3.422-0.027-4.737
	c1.3-1.316,3.419-1.325,4.738-0.026c14.142,13.997,14.273,36.883,0.286,51.026C76.408,91.546,67.105,95.113,57.798,95.113z"/>
<path d="M44.848,55.844c-0.47,0-0.95-0.034-1.438-0.11c-2.312-0.36-4.606-1.578-6.459-3.431c-2.608-2.579-3.599-6.4-2.57-9.958
	c0.515-1.77,2.359-2.791,4.147-2.288c1.779,0.516,2.804,2.373,2.289,4.146c-0.348,1.205-0.022,2.486,0.855,3.349
	c0.854,0.854,1.857,1.423,2.764,1.562c0.891,0.138,1.4-0.21,1.718-0.531c1-0.997,2.028-2.03-0.711-4.771
	c-1.309-1.309-1.309-3.428,0-4.737c1.308-1.309,3.428-1.309,4.736,0c4.677,4.676,4.946,10.002,0.72,14.242
	C49.249,54.973,47.138,55.844,44.848,55.844z"/>
<path d="M48.651,45.708c-0.858,0-1.717-0.328-2.373-0.984c-4.514-4.534-4.785-9.895-0.71-14.005
	c3.763-3.746,9.562-3.382,13.824,0.872c2.595,2.587,3.589,6.376,2.59,9.891c-0.506,1.779-2.346,2.823-4.139,2.305
	c-1.779-0.505-2.812-2.358-2.307-4.135c0.335-1.175-0.004-2.445-0.877-3.317c-0.277-0.278-2.673-2.572-4.348-0.88
	c-0.799,0.802-1.906,1.919,0.711,4.544c1.304,1.311,1.304,3.433-0.01,4.739C50.361,45.38,49.507,45.708,48.651,45.708z"/>
<path d="M34.104,59.424c-0.855,0-1.713-0.326-2.368-0.98c-1.309-1.308-1.309-3.428,0-4.736l5.433-5.439
	c1.304-1.309,3.424-1.309,4.737,0c1.309,1.309,1.309,3.431,0,4.739l-5.434,5.437C35.817,59.098,34.962,59.424,34.104,59.424z"/>
<path d="M56.815,36.71c-0.858,0-1.714-0.326-2.368-0.979c-1.309-1.309-1.309-3.434,0-4.737l4.751-4.75
	c1.313-1.312,3.434-1.303,4.74,0c1.309,1.308,1.309,3.436,0,4.738l-4.754,4.749C58.53,36.384,57.673,36.71,56.815,36.71z"/>
</svg>
