<?xml version="1.0" encoding="utf-8"?>
<!-- Generator: Adobe Illustrator 16.0.0, SVG Export Plug-In . SVG Version: 6.00 Build 0)  -->
<!DOCTYPE svg PUBLIC "-//W3C//DTD SVG 1.1//EN" "http://www.w3.org/Graphics/SVG/1.1/DTD/svg11.dtd">
<svg version="1.1" id="Layer_1" xmlns="http://www.w3.org/2000/svg" xmlns:xlink="http://www.w3.org/1999/xlink" x="0px" y="0px"
	 width="100px" height="100px" viewBox="0 0 100 100" enable-background="new 0 0 100 100" xml:space="preserve">
<path fill="#1E1B1C" d="M86.458,8.376c1.656,0,2.941,0.546,3.905,1.508c3.727,3.728,1.204,12.297-15.074,28.573
	c-0.612,0.613-1.246,1.237-1.89,1.866l6.783,44.425l-6.637,6.637L51.239,59.642c-3.704,2.904-7.287,5.542-10.512,7.71l1.129,17.698
	l-2.736,2.737l-7.909-15.081c-1.033,0.387-1.906,0.594-2.587,0.594c-0.55,0-0.976-0.133-1.261-0.42
	c-0.637-0.638-0.525-1.979,0.176-3.849l-15.081-7.908l2.736-2.735l17.7,1.128c2.167-3.225,4.805-6.808,7.708-10.511L8.859,26.702
	l6.638-6.638l44.425,6.785c0.629-0.646,1.249-1.277,1.866-1.891C73.864,12.881,81.696,8.376,86.458,8.376 M86.458,3.839
	L86.458,3.839c-6.801,0-15.656,5.691-27.878,17.912c-0.089,0.088-0.175,0.176-0.264,0.264L16.182,15.58
	c-0.229-0.033-0.458-0.051-0.685-0.051c-1.194,0-2.351,0.471-3.208,1.329l-6.638,6.638c-0.946,0.946-1.428,2.264-1.312,3.599
	c0.117,1.334,0.815,2.551,1.912,3.319l27.873,19.583c-1.26,1.679-2.434,3.291-3.51,4.831l-15.128-0.966
	c-0.098-0.007-0.193-0.009-0.29-0.009c-1.198,0-2.354,0.474-3.206,1.328l-2.736,2.737c-1.019,1.02-1.495,2.464-1.275,3.892
	c0.217,1.426,1.1,2.662,2.377,3.333l12.068,6.328c-0.046,1.87,0.535,3.416,1.739,4.621c0.798,0.797,2.219,1.746,4.467,1.746
	c0.051,0,0.104,0,0.155-0.002l6.324,12.061c0.67,1.277,1.908,2.16,3.334,2.377c0.227,0.035,0.456,0.052,0.683,0.052
	c1.193,0,2.35-0.473,3.208-1.33l2.736-2.737c0.923-0.921,1.402-2.194,1.319-3.496l-0.965-15.129c1.539-1.078,3.151-2.249,4.831-3.51
	L69.84,93.995c0.771,1.097,1.984,1.795,3.317,1.912c0.132,0.012,0.262,0.017,0.392,0.017c1.198,0,2.353-0.476,3.206-1.329
	l6.638-6.638c1.019-1.019,1.494-2.464,1.275-3.892L78.233,41.93c0.09-0.089,0.178-0.176,0.265-0.265
	c6.192-6.192,25.031-25.03,15.074-34.988C91.714,4.821,89.256,3.839,86.458,3.839L86.458,3.839z"/>
</svg>
