<?xml version="1.0" encoding="utf-8"?>
<!-- Generator: Adobe Illustrator 16.0.0, SVG Export Plug-In . SVG Version: 6.00 Build 0)  -->
<!DOCTYPE svg PUBLIC "-//W3C//DTD SVG 1.1//EN" "http://www.w3.org/Graphics/SVG/1.1/DTD/svg11.dtd">
<svg version="1.1" id="Livello_1" xmlns="http://www.w3.org/2000/svg" xmlns:xlink="http://www.w3.org/1999/xlink" x="0px" y="0px"
	 width="110px" height="110px" viewBox="0 0 110 110" enable-background="new 0 0 110 110" xml:space="preserve">
<path fill="#343434" d="M79.295,101.441H29.177c-2.737,0-4.889-2.704-4.889-5.883V44.523l-9.929,1.274
	c-2.674,0.354-5.081-1.548-5.46-4.142L4.732,25.305c-0.342-1.231-0.178-2.549,0.467-3.687c0.644-1.137,1.69-1.954,2.947-2.303
	L43.19,8.813c0.349-0.107,0.733-0.055,1.045,0.142c0.311,0.196,0.522,0.518,0.58,0.881c0.783,4.984,5.012,8.603,10.058,8.603
	c5.053,0,9.388-3.775,10.082-8.781c0.051-0.37,0.262-0.698,0.573-0.899c0.314-0.2,0.702-0.254,1.056-0.145l35.302,10.708
	c2.568,0.712,4.1,3.41,3.379,6.006l-4.163,16.327c-0.346,2.389-2.409,4.182-4.826,4.182l0,0c-0.205,0-0.42-0.013-0.629-0.04
	l-11.461-1.469v51.232C84.186,98.684,81.996,101.441,79.295,101.441z M25.571,41.8c0.309,0,0.604,0.112,0.838,0.316
	c0.273,0.244,0.428,0.591,0.428,0.958v52.484c0,1.719,1.054,3.334,2.34,3.334h50.118c1.297,0,2.342-1.615,2.342-3.334V42.877
	c0-0.367,0.162-0.716,0.438-0.958c0.273-0.241,0.64-0.351,1.004-0.306l12.897,1.656c1.299,0.167,2.452-0.76,2.613-2.022
	c0.008-0.051,0.018-0.102,0.03-0.151l4.184-16.421c0.349-1.267-0.381-2.559-1.625-2.902L67.191,11.462
	c-1.439,5.523-6.499,9.528-12.317,9.528c-5.817,0-10.77-3.849-12.271-9.336L8.854,21.765c-0.627,0.175-1.129,0.564-1.438,1.11
	c-0.307,0.544-0.386,1.175-0.22,1.775l4.192,16.445c0.014,0.05,0.023,0.1,0.029,0.152c0.162,1.261,1.314,2.19,2.622,2.022
	l11.37-1.46C25.463,41.802,25.518,41.8,25.571,41.8z M43.855,68.294c-0.26,0-0.52-0.078-0.744-0.24
	c-0.511-0.365-0.677-1.053-0.391-1.615l8.829-17.248h-7.728c-0.516,0-0.982-0.311-1.179-0.789c-0.196-0.478-0.085-1.026,0.282-1.39
	l18.676-18.516c0.435-0.427,1.104-0.492,1.604-0.156c0.504,0.335,0.703,0.978,0.479,1.537l-5.21,12.943h7.824
	c0.513,0,0.977,0.308,1.176,0.78c0.198,0.473,0.094,1.02-0.264,1.386L44.767,67.911C44.519,68.166,44.187,68.294,43.855,68.294z"/>
</svg>
